<mxfile host="app.diagrams.net" modified="2024-06-11T19:34:04.409Z" agent="Mozilla/5.0 (Windows NT 10.0; Win64; x64) AppleWebKit/537.36 (KHTML, like Gecko) Chrome/125.0.0.0 Safari/537.36 Edg/125.0.0.0" etag="G1L6dCHtw33wlKK974X4" version="24.5.3" type="device">
  <diagram id="3j9G0F825_cHGCq9AKto" name="Page-2">
    <mxGraphModel dx="3041" dy="-1248" grid="1" gridSize="10" guides="1" tooltips="1" connect="1" arrows="1" fold="1" page="1" pageScale="1" pageWidth="827" pageHeight="1169" math="0" shadow="0">
      <root>
        <mxCell id="0" />
        <mxCell id="1" parent="0" />
        <mxCell id="QFe1ScGnCT4EniJzE_eW-2" value="" style="rounded=0;whiteSpace=wrap;html=1;" parent="1" vertex="1">
          <mxGeometry x="-171" y="3150" width="1250" height="860" as="geometry" />
        </mxCell>
        <mxCell id="QFe1ScGnCT4EniJzE_eW-3" value="" style="rounded=0;whiteSpace=wrap;html=1;fillColor=#f5f5f5;fontColor=#333333;strokeColor=#666666;rotation=-270;" parent="1" vertex="1">
          <mxGeometry x="-490.93" y="3474.69" width="857.5" height="213.13" as="geometry" />
        </mxCell>
        <mxCell id="QFe1ScGnCT4EniJzE_eW-4" value="&lt;font size=&quot;3&quot;&gt;&lt;b&gt;LOGO&lt;/b&gt;&lt;/font&gt;" style="rhombus;whiteSpace=wrap;html=1;fillColor=#dae8fc;strokeColor=#6c8ebf;" parent="1" vertex="1">
          <mxGeometry x="-160" y="3160" width="80" height="80" as="geometry" />
        </mxCell>
        <mxCell id="QFe1ScGnCT4EniJzE_eW-5" value="&lt;b&gt;Logout&lt;/b&gt;" style="rounded=0;whiteSpace=wrap;html=1;fillColor=#dae8fc;strokeColor=#6c8ebf;" parent="1" vertex="1">
          <mxGeometry x="909" y="3180" width="90" height="40" as="geometry" />
        </mxCell>
        <mxCell id="QFe1ScGnCT4EniJzE_eW-6" value="" style="rounded=0;whiteSpace=wrap;html=1;fillColor=#f5f5f5;fontColor=#f5f5f5;strokeColor=#666666;" parent="1" vertex="1">
          <mxGeometry x="-170" y="3910" width="1249" height="100" as="geometry" />
        </mxCell>
        <mxCell id="QFe1ScGnCT4EniJzE_eW-7" value="&lt;font style=&quot;font-size: 14px;&quot;&gt;Footer Information&lt;/font&gt;" style="text;html=1;align=center;verticalAlign=middle;whiteSpace=wrap;rounded=0;" parent="1" vertex="1">
          <mxGeometry x="383" y="3945" width="126" height="30" as="geometry" />
        </mxCell>
        <mxCell id="QFe1ScGnCT4EniJzE_eW-8" value="" style="rounded=0;whiteSpace=wrap;html=1;" parent="1" vertex="1">
          <mxGeometry x="59.06999999999999" y="3340" width="990" height="550" as="geometry" />
        </mxCell>
        <mxCell id="QFe1ScGnCT4EniJzE_eW-9" value="&lt;b&gt;&lt;font style=&quot;font-size: 18px;&quot;&gt;Welcome Message&lt;/font&gt;&lt;/b&gt;" style="text;html=1;align=center;verticalAlign=middle;whiteSpace=wrap;rounded=0;" parent="1" vertex="1">
          <mxGeometry x="70" y="3170" width="230" height="30" as="geometry" />
        </mxCell>
        <mxCell id="QFe1ScGnCT4EniJzE_eW-10" value="Current user information" style="text;html=1;align=center;verticalAlign=middle;whiteSpace=wrap;rounded=0;" parent="1" vertex="1">
          <mxGeometry x="90" y="3210" width="160" height="30" as="geometry" />
        </mxCell>
        <mxCell id="QFe1ScGnCT4EniJzE_eW-11" value="&lt;font style=&quot;font-size: 14px;&quot;&gt;Menu Options&lt;/font&gt;" style="text;html=1;align=center;verticalAlign=middle;whiteSpace=wrap;rounded=0;" parent="1" vertex="1">
          <mxGeometry x="-150" y="3320" width="110" height="30" as="geometry" />
        </mxCell>
        <mxCell id="QFe1ScGnCT4EniJzE_eW-12" value="&lt;font style=&quot;font-size: 14px;&quot;&gt;Dashboard&lt;/font&gt;" style="text;html=1;align=center;verticalAlign=middle;whiteSpace=wrap;rounded=0;" parent="1" vertex="1">
          <mxGeometry x="-165" y="3390" width="110" height="30" as="geometry" />
        </mxCell>
        <mxCell id="QFe1ScGnCT4EniJzE_eW-13" value="&lt;font style=&quot;font-size: 14px;&quot;&gt;Transactions&lt;/font&gt;" style="text;html=1;align=center;verticalAlign=middle;whiteSpace=wrap;rounded=0;fillColor=#FFFFFF;strokeColor=#FFFFFF;" parent="1" vertex="1">
          <mxGeometry x="-145" y="3431.26" width="110" height="30" as="geometry" />
        </mxCell>
        <mxCell id="QFe1ScGnCT4EniJzE_eW-14" value="&lt;font style=&quot;font-size: 14px;&quot;&gt;Manage Accounts&lt;/font&gt;" style="text;html=1;align=center;verticalAlign=middle;whiteSpace=wrap;rounded=0;fillColor=#3399FF;" parent="1" vertex="1">
          <mxGeometry x="-145" y="3475.95" width="140" height="30" as="geometry" />
        </mxCell>
        <mxCell id="QFe1ScGnCT4EniJzE_eW-15" value="&lt;font style=&quot;font-size: 14px;&quot;&gt;Register new customer&lt;/font&gt;" style="text;html=1;align=center;verticalAlign=middle;whiteSpace=wrap;rounded=0;" parent="1" vertex="1">
          <mxGeometry x="-145" y="3530" width="180" height="30" as="geometry" />
        </mxCell>
        <mxCell id="QFe1ScGnCT4EniJzE_eW-16" value="&lt;font style=&quot;font-size: 14px;&quot;&gt;Manage Customers&lt;/font&gt;" style="text;html=1;align=center;verticalAlign=middle;whiteSpace=wrap;rounded=0;" parent="1" vertex="1">
          <mxGeometry x="-130" y="3570" width="130" height="30" as="geometry" />
        </mxCell>
        <mxCell id="QFe1ScGnCT4EniJzE_eW-17" value="&lt;font style=&quot;font-size: 14px;&quot;&gt;Profile&lt;/font&gt;" style="text;html=1;align=center;verticalAlign=middle;whiteSpace=wrap;rounded=0;" parent="1" vertex="1">
          <mxGeometry x="-159" y="3610" width="110" height="30" as="geometry" />
        </mxCell>
        <mxCell id="QFe1ScGnCT4EniJzE_eW-18" style="edgeStyle=orthogonalEdgeStyle;rounded=0;orthogonalLoop=1;jettySize=auto;html=1;exitX=0.5;exitY=1;exitDx=0;exitDy=0;" parent="1" source="QFe1ScGnCT4EniJzE_eW-17" target="QFe1ScGnCT4EniJzE_eW-17" edge="1">
          <mxGeometry relative="1" as="geometry" />
        </mxCell>
        <mxCell id="QFe1ScGnCT4EniJzE_eW-19" value="" style="endArrow=none;html=1;rounded=0;" parent="1" edge="1">
          <mxGeometry width="50" height="50" relative="1" as="geometry">
            <mxPoint x="-30" y="3370" as="sourcePoint" />
            <mxPoint x="-150" y="3370" as="targetPoint" />
          </mxGeometry>
        </mxCell>
        <mxCell id="QFe1ScGnCT4EniJzE_eW-20" value="Manage accounts" style="text;html=1;align=center;verticalAlign=middle;whiteSpace=wrap;rounded=0;" parent="1" vertex="1">
          <mxGeometry x="449" y="3280" width="110.07" height="30" as="geometry" />
        </mxCell>
        <mxCell id="QFe1ScGnCT4EniJzE_eW-21" value="" style="html=1;shadow=0;dashed=0;shape=mxgraph.bootstrap.rrect;rSize=5;strokeColor=#DFDFDF;html=1;whiteSpace=wrap;fillColor=#FFFFFF;fontColor=#000000;" parent="1" vertex="1">
          <mxGeometry x="59.06999999999999" y="3340" width="990" height="550" as="geometry" />
        </mxCell>
        <mxCell id="QFe1ScGnCT4EniJzE_eW-22" value="Customer&#39;s accounts" style="html=1;shadow=0;dashed=0;shape=mxgraph.bootstrap.topButton;strokeColor=inherit;fillColor=#F7F7F7;rSize=5;perimeter=none;whiteSpace=wrap;resizeWidth=1;align=left;spacing=10;" parent="QFe1ScGnCT4EniJzE_eW-21" vertex="1">
          <mxGeometry width="990" height="30" relative="1" as="geometry" />
        </mxCell>
        <mxCell id="QFe1ScGnCT4EniJzE_eW-23" value="Customer1Accounts" style="strokeColor=inherit;fillColor=inherit;gradientColor=inherit;fontColor=inherit;html=1;shadow=0;dashed=0;perimeter=none;whiteSpace=wrap;resizeWidth=1;align=left;spacing=10;" parent="QFe1ScGnCT4EniJzE_eW-21" vertex="1">
          <mxGeometry width="990" height="30" relative="1" as="geometry">
            <mxPoint y="30" as="offset" />
          </mxGeometry>
        </mxCell>
        <mxCell id="QFe1ScGnCT4EniJzE_eW-24" value="Customer3Accounts" style="strokeColor=inherit;fillColor=inherit;gradientColor=inherit;fontColor=inherit;html=1;shadow=0;dashed=0;perimeter=none;whiteSpace=wrap;resizeWidth=1;align=left;spacing=10;" parent="QFe1ScGnCT4EniJzE_eW-21" vertex="1">
          <mxGeometry width="990" height="30" relative="1" as="geometry">
            <mxPoint y="90" as="offset" />
          </mxGeometry>
        </mxCell>
        <mxCell id="QFe1ScGnCT4EniJzE_eW-25" value="" style="strokeColor=inherit;fillColor=inherit;gradientColor=inherit;fontColor=inherit;html=1;shadow=0;dashed=0;shape=mxgraph.bootstrap.bottomButton;rSize=5;perimeter=none;whiteSpace=wrap;resizeWidth=1;resizeHeight=0;align=left;spacing=10;" parent="QFe1ScGnCT4EniJzE_eW-21" vertex="1">
          <mxGeometry y="1" width="990" height="30" relative="1" as="geometry">
            <mxPoint y="-30" as="offset" />
          </mxGeometry>
        </mxCell>
        <mxCell id="QFe1ScGnCT4EniJzE_eW-26" value="Details" style="rounded=1;fillColor=#0057D8;strokeColor=none;html=1;whiteSpace=wrap;fontColor=#ffffff;align=center;verticalAlign=middle;fontStyle=0;fontSize=12;sketch=0;" parent="QFe1ScGnCT4EniJzE_eW-21" vertex="1">
          <mxGeometry x="910" y="40" width="66" height="20" as="geometry" />
        </mxCell>
        <mxCell id="QFe1ScGnCT4EniJzE_eW-27" value="Customer6Accounts" style="strokeColor=inherit;fillColor=inherit;gradientColor=inherit;fontColor=inherit;html=1;shadow=0;dashed=0;perimeter=none;whiteSpace=wrap;resizeWidth=1;align=left;spacing=10;" parent="QFe1ScGnCT4EniJzE_eW-21" vertex="1">
          <mxGeometry y="180" width="990" height="30" as="geometry" />
        </mxCell>
        <mxCell id="QFe1ScGnCT4EniJzE_eW-28" value="Customer5Accounts" style="strokeColor=inherit;fillColor=inherit;gradientColor=inherit;fontColor=inherit;html=1;shadow=0;dashed=0;perimeter=none;whiteSpace=wrap;resizeWidth=1;align=left;spacing=10;" parent="QFe1ScGnCT4EniJzE_eW-21" vertex="1">
          <mxGeometry y="150" width="990" height="30" as="geometry" />
        </mxCell>
        <mxCell id="QFe1ScGnCT4EniJzE_eW-29" value="Customer4Accounts" style="strokeColor=inherit;fillColor=inherit;gradientColor=inherit;fontColor=inherit;html=1;shadow=0;dashed=0;perimeter=none;whiteSpace=wrap;resizeWidth=1;align=left;spacing=10;" parent="QFe1ScGnCT4EniJzE_eW-21" vertex="1">
          <mxGeometry y="120" width="990" height="30" as="geometry" />
        </mxCell>
        <mxCell id="QFe1ScGnCT4EniJzE_eW-30" value="Customer2Accounts" style="strokeColor=inherit;fillColor=inherit;gradientColor=inherit;fontColor=inherit;html=1;shadow=0;dashed=0;perimeter=none;whiteSpace=wrap;resizeWidth=1;align=left;spacing=10;" parent="QFe1ScGnCT4EniJzE_eW-21" vertex="1">
          <mxGeometry y="60" width="990" height="30" as="geometry" />
        </mxCell>
        <mxCell id="QFe1ScGnCT4EniJzE_eW-31" value="Details" style="rounded=1;fillColor=#0057D8;strokeColor=none;html=1;whiteSpace=wrap;fontColor=#ffffff;align=center;verticalAlign=middle;fontStyle=0;fontSize=12;sketch=0;" parent="QFe1ScGnCT4EniJzE_eW-21" vertex="1">
          <mxGeometry x="910" y="65" width="66" height="20" as="geometry" />
        </mxCell>
        <mxCell id="QFe1ScGnCT4EniJzE_eW-32" value="Details" style="rounded=1;fillColor=#0057D8;strokeColor=none;html=1;whiteSpace=wrap;fontColor=#ffffff;align=center;verticalAlign=middle;fontStyle=0;fontSize=12;sketch=0;" parent="QFe1ScGnCT4EniJzE_eW-21" vertex="1">
          <mxGeometry x="910" y="185" width="66" height="20" as="geometry" />
        </mxCell>
        <mxCell id="QFe1ScGnCT4EniJzE_eW-33" value="Details" style="rounded=1;fillColor=#0057D8;strokeColor=none;html=1;whiteSpace=wrap;fontColor=#ffffff;align=center;verticalAlign=middle;fontStyle=0;fontSize=12;sketch=0;" parent="QFe1ScGnCT4EniJzE_eW-21" vertex="1">
          <mxGeometry x="910" y="160" width="66" height="20" as="geometry" />
        </mxCell>
        <mxCell id="QFe1ScGnCT4EniJzE_eW-34" value="Details" style="rounded=1;fillColor=#0057D8;strokeColor=none;html=1;whiteSpace=wrap;fontColor=#ffffff;align=center;verticalAlign=middle;fontStyle=0;fontSize=12;sketch=0;" parent="QFe1ScGnCT4EniJzE_eW-21" vertex="1">
          <mxGeometry x="910" y="125" width="66" height="20" as="geometry" />
        </mxCell>
        <mxCell id="QFe1ScGnCT4EniJzE_eW-35" value="Details" style="rounded=1;fillColor=#0057D8;strokeColor=none;html=1;whiteSpace=wrap;fontColor=#ffffff;align=center;verticalAlign=middle;fontStyle=0;fontSize=12;sketch=0;" parent="QFe1ScGnCT4EniJzE_eW-21" vertex="1">
          <mxGeometry x="910" y="100" width="66" height="20" as="geometry" />
        </mxCell>
        <mxCell id="QFe1ScGnCT4EniJzE_eW-36" style="edgeStyle=orthogonalEdgeStyle;rounded=0;orthogonalLoop=1;jettySize=auto;html=1;exitX=0.5;exitY=1;exitDx=0;exitDy=0;" parent="1" source="QFe1ScGnCT4EniJzE_eW-15" target="QFe1ScGnCT4EniJzE_eW-15" edge="1">
          <mxGeometry relative="1" as="geometry" />
        </mxCell>
        <mxCell id="QFe1ScGnCT4EniJzE_eW-37" value="&lt;font style=&quot;font-size: 18px;&quot;&gt;&lt;b&gt;Manage Accounts&lt;/b&gt;&lt;/font&gt;" style="text;html=1;align=center;verticalAlign=middle;whiteSpace=wrap;rounded=0;" parent="1" vertex="1">
          <mxGeometry x="370" y="3080" width="176" height="30" as="geometry" />
        </mxCell>
        <mxCell id="cE5tkf5CK-e9WLKYT7Nt-1" value="&lt;h1 style=&quot;margin-top: 0px;&quot;&gt;C&lt;/h1&gt;" style="text;html=1;whiteSpace=wrap;overflow=hidden;rounded=0;align=center;" vertex="1" parent="1">
          <mxGeometry x="529.07" y="3920" width="30" height="40" as="geometry" />
        </mxCell>
        <mxCell id="cE5tkf5CK-e9WLKYT7Nt-2" value="&lt;h1 style=&quot;margin-top: 0px;&quot;&gt;H&lt;/h1&gt;" style="text;html=1;whiteSpace=wrap;overflow=hidden;rounded=0;align=center;" vertex="1" parent="1">
          <mxGeometry x="539.07" y="3160" width="30" height="40" as="geometry" />
        </mxCell>
        <mxCell id="cE5tkf5CK-e9WLKYT7Nt-4" value="&lt;h1 style=&quot;margin-top: 0px;&quot;&gt;A&lt;/h1&gt;" style="text;html=1;whiteSpace=wrap;overflow=hidden;rounded=0;align=center;" vertex="1" parent="1">
          <mxGeometry x="620" y="3260" width="30" height="40" as="geometry" />
        </mxCell>
        <mxCell id="cE5tkf5CK-e9WLKYT7Nt-6" value="&lt;h1 style=&quot;margin-top: 0px;&quot;&gt;B&lt;/h1&gt;" style="text;html=1;whiteSpace=wrap;overflow=hidden;rounded=0;align=center;" vertex="1" parent="1">
          <mxGeometry y="3165" width="30" height="40" as="geometry" />
        </mxCell>
      </root>
    </mxGraphModel>
  </diagram>
</mxfile>
